<svg width="496" height="62" viewBox="0 0 496 62" fill="none" xmlns="http://www.w3.org/2000/svg">
<path d="M25.2801 38.912C27.1574 38.912 28.9708 38.528 30.7201 37.76C32.4694 36.992 34.0908 35.8827 35.5841 34.432L37.2481 36.288C32.0001 42.944 25.9841 46.272 19.2001 46.272C15.3174 46.272 11.9254 45.3973 9.02411 43.648C6.16545 41.8987 3.94678 39.424 2.36811 36.224C0.789445 33.024 0.000111341 29.2693 0.000111341 24.96C0.000111341 21.248 0.704111 17.664 2.11211 14.208C3.56278 10.7093 5.39745 7.91468 7.61611 5.82401C9.79211 4.41601 12.1174 3.34934 14.5921 2.62401C17.1094 1.85601 19.5841 1.47201 22.0161 1.47201C25.2588 1.47201 28.2241 2.17601 30.9121 3.58401C33.6428 4.94934 35.7974 6.86934 37.3761 9.34401L29.5041 15.936C27.2854 12.0107 24.6188 7.76534 21.5041 3.20001C19.6268 3.96801 17.9201 5.29068 16.3841 7.16801C14.8481 9.04534 13.6321 11.2853 12.7361 13.888C11.8828 16.4907 11.4561 19.2 11.4561 22.016C11.4561 27.392 12.6508 31.552 15.0401 34.496C17.4721 37.44 20.8854 38.912 25.2801 38.912ZM64.9186 41.984L55.5106 46.4C54.3586 45.5893 53.5693 44.48 53.1426 43.072C51.6066 44.0107 50.0493 44.7787 48.4706 45.376C46.9346 45.9733 45.5906 46.272 44.4386 46.272C42.6893 46.272 41.2599 45.6533 40.1506 44.416C39.0413 43.1787 38.4866 41.6 38.4866 39.68C38.4866 38.8267 38.5719 37.9093 38.7426 36.928C38.9559 35.904 39.2119 35.0933 39.5106 34.496L53.0786 32.32L53.2066 30.464C53.2919 28.544 52.8866 27.0507 51.9906 25.984C51.0946 24.8747 49.6439 24.32 47.6386 24.32C46.7426 24.32 45.8039 24.4267 44.8226 24.64C43.8413 24.8107 43.0093 25.0453 42.3266 25.344L41.3026 27.52L39.5746 26.88L42.5186 17.664C45.8039 16.256 48.9186 15.552 51.8626 15.552C54.8919 15.552 57.3666 16.3627 59.2866 17.984C61.2066 19.5627 62.1666 22.0587 62.1666 25.472L62.1026 26.752L61.4626 35.392L61.3346 37.696C61.3346 38.464 61.3986 39.0827 61.5266 39.552C61.6546 39.9787 61.8679 40.4267 62.1666 40.896L64.1506 40.128L64.9186 41.984ZM50.3906 41.664C51.0733 41.664 51.8626 41.408 52.7586 40.896L52.6946 39.552L52.7586 38.144L52.9506 34.496L48.0226 35.648C47.8519 36.2027 47.7666 36.9493 47.7666 37.888C47.7666 39.168 48.0226 40.128 48.5346 40.768C49.0466 41.3653 49.6653 41.664 50.3906 41.664ZM98.1816 40.832L89.2216 46.08C86.5336 43.904 84.3363 40.5333 82.6296 35.968L81.9256 33.984L77.7656 35.776L77.7016 43.264L80.0696 43.456V45.312H66.3096V43.456L68.6776 43.264L68.3576 4.92801L65.9256 5.44001L65.2856 3.58401L77.1256 1.14441e-05L78.0216 1.53601L77.8296 25.472L86.3416 15.36C89.3283 16.2133 91.5256 17.7067 92.9336 19.84C94.3843 21.9733 95.1096 24.8107 95.1096 28.352L89.2856 30.848L89.6696 31.616C90.3523 33.2373 91.2696 34.816 92.4216 36.352C93.5736 37.888 94.6829 39.0613 95.7496 39.872L97.4776 38.912L98.1816 40.832ZM77.7656 33.408L86.4056 29.312C86.4056 28.3733 86.0429 27.3493 85.3176 26.24C84.6349 25.1307 83.8029 24.448 82.8216 24.192L77.8296 28.544L77.7656 33.408ZM129.881 41.024L120.985 46.08C119.62 45.3547 118.617 44.3733 117.977 43.136C117.337 41.856 117.017 40.2347 117.017 38.272L111.513 46.272C107.502 46.272 104.537 45.312 102.617 43.392C100.697 41.4293 99.7371 38.4213 99.7371 34.368V18.56L97.3691 18.368V16.512H108.761V31.808C108.761 33.728 109.252 35.2213 110.233 36.288C111.257 37.312 112.601 37.8453 114.265 37.888L117.017 35.328V18.56L114.713 18.368V16.512H126.041V34.56C126.041 36.1387 126.126 37.312 126.297 38.08C126.51 38.848 126.83 39.5093 127.257 40.064L129.177 39.104L129.881 41.024ZM148.919 15.552C151.393 15.552 153.569 16.128 155.447 17.28C157.367 18.3893 158.839 19.9467 159.863 21.952C160.929 23.9147 161.463 26.1547 161.463 28.672C161.463 30.848 161.1 33.1733 160.375 35.648C159.692 38.08 158.839 39.9573 157.815 41.28C157.004 42.432 155.532 43.5627 153.399 44.672C151.265 45.7387 149.473 46.272 148.023 46.272C146.956 46.272 145.228 46.08 142.839 45.696L142.967 59.264L147.895 59.456V61.312H130.935V59.456L133.303 59.264L133.623 20.224L131.191 20.8L130.551 18.88L140.471 15.744L142.519 23.04L148.919 15.552ZM150.711 41.408C151.777 38.976 152.311 36.0107 152.311 32.512C152.311 30.5493 151.991 28.8427 151.351 27.392C150.711 25.9413 149.857 24.832 148.791 24.064C147.767 23.296 146.657 22.912 145.463 22.912L142.647 25.728L142.775 38.72C145.591 40.0427 148.236 40.9387 150.711 41.408ZM189.606 41.984L180.198 46.4C179.046 45.5893 178.257 44.48 177.83 43.072C176.294 44.0107 174.737 44.7787 173.158 45.376C171.622 45.9733 170.278 46.272 169.126 46.272C167.377 46.272 165.947 45.6533 164.838 44.416C163.729 43.1787 163.174 41.6 163.174 39.68C163.174 38.8267 163.259 37.9093 163.43 36.928C163.643 35.904 163.899 35.0933 164.198 34.496L177.766 32.32L177.894 30.464C177.979 28.544 177.574 27.0507 176.678 25.984C175.782 24.8747 174.331 24.32 172.326 24.32C171.43 24.32 170.491 24.4267 169.51 24.64C168.529 24.8107 167.697 25.0453 167.014 25.344L165.99 27.52L164.262 26.88L167.206 17.664C170.491 16.256 173.606 15.552 176.55 15.552C179.579 15.552 182.054 16.3627 183.974 17.984C185.894 19.5627 186.854 22.0587 186.854 25.472L186.79 26.752L186.15 35.392L186.022 37.696C186.022 38.464 186.086 39.0827 186.214 39.552C186.342 39.9787 186.555 40.4267 186.854 40.896L188.838 40.128L189.606 41.984ZM175.078 41.664C175.761 41.664 176.55 41.408 177.446 40.896L177.382 39.552L177.446 38.144L177.638 34.496L172.71 35.648C172.539 36.2027 172.454 36.9493 172.454 37.888C172.454 39.168 172.71 40.128 173.222 40.768C173.734 41.3653 174.353 41.664 175.078 41.664ZM222.109 43.456V45.312H208.413V43.456L210.781 43.264V29.76C210.781 27.8827 210.247 26.432 209.181 25.408C208.157 24.384 206.727 23.8507 204.893 23.808L202.845 25.92L202.589 43.264L204.957 43.456V45.312H191.197V43.456L193.565 43.264L193.373 20.352L190.941 20.928L190.301 19.008L200.413 15.872L202.653 23.04L207.965 15.424C212.018 15.424 215.005 16.384 216.925 18.304C218.845 20.224 219.805 23.1893 219.805 27.2V43.264L222.109 43.456ZM272.311 14.976C272.311 19.4987 270.369 23.0827 266.487 25.728C262.647 28.3307 257.015 29.7173 249.591 29.888V43.008L256.567 43.072V45.312H235.831V43.072L238.967 43.008V4.73601L235.831 4.67201V2.43201L248.183 2.56001L257.719 2.11201C260.791 2.11201 263.415 2.68801 265.591 3.84001C267.809 4.99201 269.473 6.54934 270.583 8.51201C271.735 10.4747 272.311 12.6293 272.311 14.976ZM260.919 16.832C260.919 14.5707 260.428 12.5227 259.447 10.688C258.465 8.81068 257.1 7.33868 255.351 6.27201C253.644 5.20534 251.724 4.67201 249.591 4.67201V27.392C253.132 27.1787 255.905 26.1547 257.911 24.32C259.916 22.4427 260.919 19.9467 260.919 16.832ZM289.281 15.552C293.036 15.552 295.98 16.9173 298.113 19.648C300.289 22.336 301.356 25.984 301.313 30.592L283.649 31.168C283.948 33.6853 284.822 35.6053 286.273 36.928C287.724 38.2507 289.644 38.912 292.033 38.912C295.361 38.912 298.07 37.9947 300.161 36.16L301.313 37.184C299.82 40.0427 297.793 42.2827 295.233 43.904C292.716 45.4827 290.028 46.272 287.169 46.272C283.286 46.272 280.193 44.992 277.889 42.432C275.628 39.8293 274.497 36.3307 274.497 31.936C274.497 29.3333 275.009 26.752 276.033 24.192C277.1 21.632 278.444 19.4987 280.065 17.792C281.174 17.152 282.604 16.6187 284.353 16.192C286.102 15.7653 287.745 15.552 289.281 15.552ZM291.841 28.48C291.798 25.4933 291.372 23.1253 290.561 21.376C289.75 19.6267 288.598 18.5813 287.105 18.24C286.038 19.3493 285.164 20.9067 284.481 22.912C283.841 24.8747 283.521 26.9013 283.521 28.992V29.184L291.841 28.48ZM334.171 43.456V45.312H320.475V43.456L322.843 43.264V29.76C322.843 27.8827 322.31 26.432 321.243 25.408C320.219 24.384 318.79 23.8507 316.955 23.808L314.907 25.92L314.651 43.264L317.019 43.456V45.312H303.259V43.456L305.627 43.264L305.435 20.352L303.003 20.928L302.363 19.008L312.475 15.872L314.715 23.04L320.027 15.424C324.08 15.424 327.067 16.384 328.987 18.304C330.907 20.224 331.867 23.1893 331.867 27.2V43.264L334.171 43.456ZM350.906 15.552C354.661 15.552 357.605 16.9173 359.738 19.648C361.914 22.336 362.981 25.984 362.938 30.592L345.274 31.168C345.573 33.6853 346.447 35.6053 347.898 36.928C349.349 38.2507 351.269 38.912 353.658 38.912C356.986 38.912 359.695 37.9947 361.786 36.16L362.938 37.184C361.445 40.0427 359.418 42.2827 356.858 43.904C354.341 45.4827 351.653 46.272 348.794 46.272C344.911 46.272 341.818 44.992 339.514 42.432C337.253 39.8293 336.122 36.3307 336.122 31.936C336.122 29.3333 336.634 26.752 337.658 24.192C338.725 21.632 340.069 19.4987 341.69 17.792C342.799 17.152 344.229 16.6187 345.978 16.192C347.727 15.7653 349.37 15.552 350.906 15.552ZM353.466 28.48C353.423 25.4933 352.997 23.1253 352.186 21.376C351.375 19.6267 350.223 18.5813 348.73 18.24C347.663 19.3493 346.789 20.9067 346.106 22.912C345.466 24.8747 345.146 26.9013 345.146 28.992V29.184L353.466 28.48ZM364.997 43.456L367.365 43.264L367.045 4.92801L364.613 5.44001L363.973 3.58401L375.813 1.14441e-05L376.709 1.53601L376.389 43.264L378.757 43.456V45.312H364.997V43.456ZM384.394 3.00801L392.586 1.15201V8.44801L384.394 9.66401V3.00801ZM393.226 43.264L395.594 43.456V45.312H381.834V43.456L384.202 43.264L384.01 20.48L381.578 20.992L380.938 19.136L392.522 15.552L393.418 17.088L393.226 43.264ZM418.409 40.256L410.601 45.888C407.443 45.888 405.139 45.12 403.689 43.584C402.281 42.0053 401.577 39.488 401.577 36.032V19.008H397.289V16.96C399.081 15.9787 401.022 14.592 403.113 12.8C405.246 10.9653 407.187 9.04534 408.937 7.04001L411.049 7.68001L410.729 16.512H418.217V19.2L410.601 19.072V33.792C410.601 35.84 410.985 37.3333 411.753 38.272C412.563 39.2107 413.63 39.68 414.953 39.68L417.321 38.336L418.409 40.256ZM423.394 3.00801L431.586 1.15201V8.44801L423.394 9.66401V3.00801ZM432.226 43.264L434.594 43.456V45.312H420.834V43.456L423.202 43.264L423.01 20.48L420.578 20.992L419.938 19.136L431.522 15.552L432.418 17.088L432.226 43.264ZM463.169 41.984L453.761 46.4C452.609 45.5893 451.819 44.48 451.393 43.072C449.857 44.0107 448.299 44.7787 446.721 45.376C445.185 45.9733 443.841 46.272 442.689 46.272C440.939 46.272 439.51 45.6533 438.401 44.416C437.291 43.1787 436.737 41.6 436.737 39.68C436.737 38.8267 436.822 37.9093 436.993 36.928C437.206 35.904 437.462 35.0933 437.761 34.496L451.329 32.32L451.457 30.464C451.542 28.544 451.137 27.0507 450.241 25.984C449.345 24.8747 447.894 24.32 445.889 24.32C444.993 24.32 444.054 24.4267 443.073 24.64C442.091 24.8107 441.259 25.0453 440.577 25.344L439.553 27.52L437.825 26.88L440.769 17.664C444.054 16.256 447.169 15.552 450.113 15.552C453.142 15.552 455.617 16.3627 457.537 17.984C459.457 19.5627 460.417 22.0587 460.417 25.472L460.353 26.752L459.713 35.392L459.585 37.696C459.585 38.464 459.649 39.0827 459.777 39.552C459.905 39.9787 460.118 40.4267 460.417 40.896L462.401 40.128L463.169 41.984ZM448.641 41.664C449.323 41.664 450.113 41.408 451.009 40.896L450.945 39.552L451.009 38.144L451.201 34.496L446.273 35.648C446.102 36.2027 446.017 36.9493 446.017 37.888C446.017 39.168 446.273 40.128 446.785 40.768C447.297 41.3653 447.915 41.664 448.641 41.664ZM495.671 43.456V45.312H481.975V43.456L484.343 43.264V29.76C484.343 27.8827 483.81 26.432 482.743 25.408C481.719 24.384 480.29 23.8507 478.455 23.808L476.407 25.92L476.151 43.264L478.519 43.456V45.312H464.759V43.456L467.127 43.264L466.935 20.352L464.503 20.928L463.863 19.008L473.975 15.872L476.215 23.04L481.527 15.424C485.58 15.424 488.567 16.384 490.487 18.304C492.407 20.224 493.367 23.1893 493.367 27.2V43.264L495.671 43.456Z" fill="#EF874B"/>
</svg>
