<svg width="674" height="62" viewBox="0 0 674 62" fill="none" xmlns="http://www.w3.org/2000/svg">
<path d="M56.6401 43.072V45.312H38.9121V43.072L42.3681 43.008L39.3601 10.176L27.0081 38.144H25.0241L11.7761 9.98401L10.5601 43.008L14.0161 43.072V45.312H7.03186e-05V43.072L2.49607 43.008L8.64007 4.73601L5.12007 4.67201V2.43201H19.8401L30.1441 23.36L39.0401 2.43201H52.2881V4.67201L48.8961 4.73601L54.1441 43.008L56.6401 43.072ZM72.9391 15.552C76.6937 15.552 79.6377 16.9173 81.7711 19.648C83.9471 22.336 85.0137 25.984 84.9711 30.592L67.3071 31.168C67.6057 33.6853 68.4804 35.6053 69.9311 36.928C71.3817 38.2507 73.3017 38.912 75.6911 38.912C79.0191 38.912 81.7284 37.9947 83.8191 36.16L84.9711 37.184C83.4777 40.0427 81.4511 42.2827 78.8911 43.904C76.3737 45.4827 73.6857 46.272 70.8271 46.272C66.9444 46.272 63.8511 44.992 61.5471 42.432C59.2857 39.8293 58.1551 36.3307 58.1551 31.936C58.1551 29.3333 58.6671 26.752 59.6911 24.192C60.7577 21.632 62.1017 19.4987 63.7231 17.792C64.8324 17.152 66.2617 16.6187 68.0111 16.192C69.7604 15.7653 71.4031 15.552 72.9391 15.552ZM75.4991 28.48C75.4564 25.4933 75.0297 23.1253 74.2191 21.376C73.4084 19.6267 72.2564 18.5813 70.7631 18.24C69.6964 19.3493 68.8217 20.9067 68.1391 22.912C67.4991 24.8747 67.1791 26.9013 67.1791 28.992V29.184L75.4991 28.48ZM106.629 40.256L98.8211 45.888C95.6637 45.888 93.3597 45.12 91.9091 43.584C90.5011 42.0053 89.7971 39.488 89.7971 36.032V19.008H85.5091V16.96C87.3011 15.9787 89.2424 14.592 91.3331 12.8C93.4664 10.9653 95.4077 9.04534 97.1571 7.04001L99.2691 7.68001L98.9491 16.512H106.437V19.2L98.8211 19.072V33.792C98.8211 35.84 99.2051 37.3333 99.9731 38.272C100.784 39.2107 101.85 39.68 103.173 39.68L105.541 38.336L106.629 40.256ZM122.061 15.552C126.328 15.552 129.762 16.8107 132.365 19.328C134.968 21.8453 136.269 25.4293 136.269 30.08C136.269 32.0853 135.906 34.1547 135.181 36.288C134.498 38.4213 133.474 40.2987 132.109 41.92C130.744 43.2427 129.144 44.3093 127.309 45.12C125.517 45.888 123.618 46.272 121.613 46.272C117.346 46.272 113.912 45.0133 111.309 42.496C108.706 39.9787 107.405 36.3947 107.405 31.744C107.405 29.7813 107.768 27.7333 108.493 25.6C109.218 23.4667 110.264 21.5893 111.629 19.968C112.994 18.6453 114.573 17.5787 116.365 16.768C118.2 15.9573 120.098 15.552 122.061 15.552ZM116.621 28.672C116.621 32.7253 117.41 35.7547 118.989 37.76C120.61 39.7653 122.978 40.96 126.093 41.344C126.392 40.064 126.626 38.6347 126.797 37.056C126.968 35.4773 127.053 34.176 127.053 33.152C127.053 29.056 126.242 26.0267 124.621 24.064C123.042 22.0587 120.717 20.864 117.645 20.48C117.346 21.8027 117.09 23.2533 116.877 24.832C116.706 26.4107 116.621 27.6907 116.621 28.672ZM170.212 40.896L160.868 45.952C159.716 45.2693 158.862 44.3733 158.308 43.264C157.796 42.112 157.497 40.64 157.412 38.848L151.076 46.272C148.601 46.272 146.404 45.7173 144.484 44.608C142.606 43.456 141.134 41.8987 140.068 39.936C139.001 37.9307 138.468 35.6693 138.468 33.152C138.468 30.976 138.83 28.672 139.556 26.24C140.281 23.808 141.156 21.9093 142.18 20.544C142.99 19.392 144.462 18.2827 146.596 17.216C148.729 16.1067 150.521 15.552 151.972 15.552C153.252 15.552 155.001 15.7653 157.22 16.192L157.092 4.92801L154.66 5.44001L154.02 3.58401L165.86 1.14441e-05L166.756 1.53601L166.372 34.688C166.372 36.224 166.457 37.376 166.628 38.144C166.798 38.8693 167.097 39.5093 167.524 40.064L169.444 39.168L170.212 40.896ZM147.684 29.312C147.684 31.2747 148.004 32.9813 148.644 34.432C149.284 35.8827 150.116 36.992 151.14 37.76C152.206 38.528 153.337 38.912 154.532 38.912L157.412 36.032L157.284 23.104C154.51 21.7813 151.844 20.8853 149.284 20.416C148.217 22.848 147.684 25.8133 147.684 29.312ZM186.689 15.552C190.444 15.552 193.388 16.9173 195.521 19.648C197.697 22.336 198.764 25.984 198.721 30.592L181.057 31.168C181.356 33.6853 182.23 35.6053 183.681 36.928C185.132 38.2507 187.052 38.912 189.441 38.912C192.769 38.912 195.478 37.9947 197.569 36.16L198.721 37.184C197.228 40.0427 195.201 42.2827 192.641 43.904C190.124 45.4827 187.436 46.272 184.577 46.272C180.694 46.272 177.601 44.992 175.297 42.432C173.036 39.8293 171.905 36.3307 171.905 31.936C171.905 29.3333 172.417 26.752 173.441 24.192C174.508 21.632 175.852 19.4987 177.473 17.792C178.582 17.152 180.012 16.6187 181.761 16.192C183.51 15.7653 185.153 15.552 186.689 15.552ZM189.249 28.48C189.206 25.4933 188.78 23.1253 187.969 21.376C187.158 19.6267 186.006 18.5813 184.513 18.24C183.446 19.3493 182.572 20.9067 181.889 22.912C181.249 24.8747 180.929 26.9013 180.929 28.992V29.184L189.249 28.48ZM249.031 14.976C249.031 19.4987 247.09 23.0827 243.207 25.728C239.367 28.3307 233.735 29.7173 226.311 29.888V43.008L233.287 43.072V45.312H212.551V43.072L215.687 43.008V4.73601L212.551 4.67201V2.43201L224.903 2.56001L234.439 2.11201C237.511 2.11201 240.135 2.68801 242.311 3.84001C244.53 4.99201 246.194 6.54934 247.303 8.51201C248.455 10.4747 249.031 12.6293 249.031 14.976ZM237.639 16.832C237.639 14.5707 237.148 12.5227 236.167 10.688C235.186 8.81068 233.82 7.33868 232.071 6.27201C230.364 5.20534 228.444 4.67201 226.311 4.67201V27.392C229.852 27.1787 232.626 26.1547 234.631 24.32C236.636 22.4427 237.639 19.9467 237.639 16.832ZM266.002 15.552C269.756 15.552 272.7 16.9173 274.834 19.648C277.01 22.336 278.076 25.984 278.034 30.592L260.37 31.168C260.668 33.6853 261.543 35.6053 262.994 36.928C264.444 38.2507 266.364 38.912 268.754 38.912C272.082 38.912 274.791 37.9947 276.882 36.16L278.034 37.184C276.54 40.0427 274.514 42.2827 271.954 43.904C269.436 45.4827 266.748 46.272 263.89 46.272C260.007 46.272 256.914 44.992 254.61 42.432C252.348 39.8293 251.218 36.3307 251.218 31.936C251.218 29.3333 251.73 26.752 252.754 24.192C253.82 21.632 255.164 19.4987 256.786 17.792C257.895 17.152 259.324 16.6187 261.074 16.192C262.823 15.7653 264.466 15.552 266.002 15.552ZM268.562 28.48C268.519 25.4933 268.092 23.1253 267.282 21.376C266.471 19.6267 265.319 18.5813 263.826 18.24C262.759 19.3493 261.884 20.9067 261.202 22.912C260.562 24.8747 260.242 26.9013 260.242 28.992V29.184L268.562 28.48ZM310.892 43.456V45.312H297.196V43.456L299.564 43.264V29.76C299.564 27.8827 299.03 26.432 297.964 25.408C296.94 24.384 295.51 23.8507 293.676 23.808L291.628 25.92L291.372 43.264L293.74 43.456V45.312H279.98V43.456L282.348 43.264L282.156 20.352L279.724 20.928L279.084 19.008L289.196 15.872L291.436 23.04L296.748 15.424C300.801 15.424 303.788 16.384 305.708 18.304C307.628 20.224 308.588 23.1893 308.588 27.2V43.264L310.892 43.456ZM338.827 41.984L329.419 46.4C328.267 45.5893 327.477 44.48 327.051 43.072C325.515 44.0107 323.957 44.7787 322.379 45.376C320.843 45.9733 319.499 46.272 318.347 46.272C316.597 46.272 315.168 45.6533 314.059 44.416C312.949 43.1787 312.395 41.6 312.395 39.68C312.395 38.8267 312.48 37.9093 312.651 36.928C312.864 35.904 313.12 35.0933 313.419 34.496L326.987 32.32L327.115 30.464C327.2 28.544 326.795 27.0507 325.899 25.984C325.003 24.8747 323.552 24.32 321.547 24.32C320.651 24.32 319.712 24.4267 318.731 24.64C317.749 24.8107 316.917 25.0453 316.235 25.344L315.211 27.52L313.483 26.88L316.427 17.664C319.712 16.256 322.827 15.552 325.771 15.552C328.8 15.552 331.275 16.3627 333.195 17.984C335.115 19.5627 336.075 22.0587 336.075 25.472L336.011 26.752L335.371 35.392L335.243 37.696C335.243 38.464 335.307 39.0827 335.435 39.552C335.563 39.9787 335.776 40.4267 336.075 40.896L338.059 40.128L338.827 41.984ZM324.299 41.664C324.981 41.664 325.771 41.408 326.667 40.896L326.603 39.552L326.667 38.144L326.859 34.496L321.931 35.648C321.76 36.2027 321.675 36.9493 321.675 37.888C321.675 39.168 321.931 40.128 322.443 40.768C322.955 41.3653 323.573 41.664 324.299 41.664ZM351.753 25.28L351.497 43.264L357.193 43.456V45.312H340.105V43.456L342.473 43.264L342.281 20.352L339.849 20.928L339.209 19.008L349.321 15.872L351.497 22.72C352.905 19.8613 354.441 17.6427 356.105 16.064C357.043 15.7227 358.174 15.552 359.497 15.552C361.289 15.552 362.974 15.872 364.553 16.512L362.505 24.832C361.267 24.576 359.689 24.3413 357.769 24.128C355.849 23.9147 354.27 23.7653 353.033 23.68L351.753 25.28ZM368.239 3.00801L376.431 1.15201V8.44801L368.239 9.66401V3.00801ZM377.071 43.264L379.439 43.456V45.312H365.679V43.456L368.047 43.264L367.855 20.48L365.423 20.992L364.783 19.136L376.367 15.552L377.263 17.088L377.071 43.264ZM413.902 40.832L404.942 46.08C402.254 43.904 400.057 40.5333 398.35 35.968L397.646 33.984L393.486 35.776L393.422 43.264L395.79 43.456V45.312H382.03V43.456L384.398 43.264L384.078 4.92801L381.646 5.44001L381.006 3.58401L392.846 1.14441e-05L393.742 1.53601L393.55 25.472L402.062 15.36C405.049 16.2133 407.246 17.7067 408.654 19.84C410.105 21.9733 410.83 24.8107 410.83 28.352L405.006 30.848L405.39 31.616C406.073 33.2373 406.99 34.816 408.142 36.352C409.294 37.888 410.403 39.0613 411.47 39.872L413.198 38.912L413.902 40.832ZM393.486 33.408L402.126 29.312C402.126 28.3733 401.763 27.3493 401.038 26.24C400.355 25.1307 399.523 24.448 398.542 24.192L393.55 28.544L393.486 33.408ZM441.139 41.984L431.731 46.4C430.579 45.5893 429.79 44.48 429.363 43.072C427.827 44.0107 426.27 44.7787 424.691 45.376C423.155 45.9733 421.811 46.272 420.659 46.272C418.91 46.272 417.48 45.6533 416.371 44.416C415.262 43.1787 414.707 41.6 414.707 39.68C414.707 38.8267 414.792 37.9093 414.963 36.928C415.176 35.904 415.432 35.0933 415.731 34.496L429.299 32.32L429.427 30.464C429.512 28.544 429.107 27.0507 428.211 25.984C427.315 24.8747 425.864 24.32 423.859 24.32C422.963 24.32 422.024 24.4267 421.043 24.64C420.062 24.8107 419.23 25.0453 418.547 25.344L417.523 27.52L415.795 26.88L418.739 17.664C422.024 16.256 425.139 15.552 428.083 15.552C431.112 15.552 433.587 16.3627 435.507 17.984C437.427 19.5627 438.387 22.0587 438.387 25.472L438.323 26.752L437.683 35.392L437.555 37.696C437.555 38.464 437.619 39.0827 437.747 39.552C437.875 39.9787 438.088 40.4267 438.387 40.896L440.371 40.128L441.139 41.984ZM426.611 41.664C427.294 41.664 428.083 41.408 428.979 40.896L428.915 39.552L428.979 38.144L429.171 34.496L424.243 35.648C424.072 36.2027 423.987 36.9493 423.987 37.888C423.987 39.168 424.243 40.128 424.755 40.768C425.267 41.3653 425.886 41.664 426.611 41.664ZM473.642 43.456V45.312H459.946V43.456L462.314 43.264V29.76C462.314 27.8827 461.78 26.432 460.714 25.408C459.69 24.384 458.26 23.8507 456.426 23.808L454.378 25.92L454.122 43.264L456.49 43.456V45.312H442.73V43.456L445.098 43.264L444.906 20.352L442.474 20.928L441.834 19.008L451.946 15.872L454.186 23.04L459.498 15.424C463.551 15.424 466.538 16.384 468.458 18.304C470.378 20.224 471.338 23.1893 471.338 27.2V43.264L473.642 43.456ZM498.948 9.21601C498.948 10.5813 499.332 11.84 500.1 12.992C500.868 14.144 501.828 15.168 502.98 16.064C504.132 16.96 505.71 18.0693 507.716 19.392C510.062 20.928 511.94 22.2933 513.348 23.488C514.756 24.64 515.95 26.048 516.932 27.712C517.956 29.3333 518.468 31.168 518.468 33.216C518.468 35.4773 517.849 37.6107 516.612 39.616C515.374 41.5787 513.518 43.1787 511.044 44.416C508.569 45.6533 505.582 46.272 502.084 46.272C494.574 46.272 489.241 43.2853 486.084 37.312L493.316 31.744C495.364 35.968 497.668 40.064 500.228 44.032H500.292C501.529 44.032 502.681 43.712 503.748 43.072C504.814 42.3893 505.668 41.5147 506.308 40.448C506.948 39.3813 507.268 38.2507 507.268 37.056C507.268 35.776 506.884 34.6027 506.116 33.536C505.39 32.4267 504.473 31.4667 503.364 30.656C502.254 29.8027 500.74 28.7787 498.82 27.584C496.516 26.1333 494.66 24.8533 493.252 23.744C491.844 22.6347 490.628 21.2907 489.604 19.712C488.622 18.0907 488.132 16.2347 488.132 14.144C488.132 11.7973 488.793 9.66401 490.116 7.74401C491.481 5.78134 493.401 4.24534 495.876 3.13601C498.393 2.02667 501.337 1.47201 504.708 1.47201C507.993 1.47201 510.681 2.00534 512.772 3.07201C514.905 4.09601 516.825 5.56801 518.532 7.48801L511.812 14.272C509.55 10.5173 507.268 6.99734 504.964 3.71201C503.044 3.71201 501.55 4.24534 500.484 5.31201C499.46 6.33601 498.948 7.63734 498.948 9.21601ZM547.702 41.984L538.294 46.4C537.142 45.5893 536.352 44.48 535.926 43.072C534.39 44.0107 532.832 44.7787 531.254 45.376C529.718 45.9733 528.374 46.272 527.222 46.272C525.472 46.272 524.043 45.6533 522.934 44.416C521.824 43.1787 521.27 41.6 521.27 39.68C521.27 38.8267 521.355 37.9093 521.526 36.928C521.739 35.904 521.995 35.0933 522.294 34.496L535.862 32.32L535.99 30.464C536.075 28.544 535.67 27.0507 534.774 25.984C533.878 24.8747 532.427 24.32 530.422 24.32C529.526 24.32 528.587 24.4267 527.606 24.64C526.624 24.8107 525.792 25.0453 525.11 25.344L524.086 27.52L522.358 26.88L525.302 17.664C528.587 16.256 531.702 15.552 534.646 15.552C537.675 15.552 540.15 16.3627 542.07 17.984C543.99 19.5627 544.95 22.0587 544.95 25.472L544.886 26.752L544.246 35.392L544.118 37.696C544.118 38.464 544.182 39.0827 544.31 39.552C544.438 39.9787 544.651 40.4267 544.95 40.896L546.934 40.128L547.702 41.984ZM533.174 41.664C533.856 41.664 534.646 41.408 535.542 40.896L535.478 39.552L535.542 38.144L535.734 34.496L530.806 35.648C530.635 36.2027 530.55 36.9493 530.55 37.888C530.55 39.168 530.806 40.128 531.318 40.768C531.83 41.3653 532.448 41.664 533.174 41.664ZM596.652 43.456V45.312H582.956V43.456L585.324 43.264V29.76C585.324 27.8827 584.833 26.432 583.852 25.408C582.913 24.3413 581.591 23.7867 579.884 23.744L577.516 26.112V27.2V43.264L579.82 43.456V45.312H566.124V43.456L568.492 43.264V29.76C568.492 27.8827 568.001 26.432 567.02 25.408C566.081 24.384 564.759 23.8507 563.052 23.808L560.94 25.92L560.684 43.264L563.052 43.456V45.312H549.292V43.456L551.66 43.264L551.468 20.352L549.036 20.928L548.396 19.008L558.508 15.872L560.748 23.04L566.06 15.424C569.345 15.424 571.884 16.0853 573.676 17.408C575.511 18.7307 576.684 20.7787 577.196 23.552L582.892 15.36C586.817 15.36 589.697 16.32 591.532 18.24C593.409 20.16 594.348 23.1467 594.348 27.2V43.264L596.652 43.456ZM616.264 15.552C618.739 15.552 620.915 16.128 622.792 17.28C624.712 18.3893 626.184 19.9467 627.208 21.952C628.275 23.9147 628.808 26.1547 628.808 28.672C628.808 30.848 628.445 33.1733 627.72 35.648C627.037 38.08 626.184 39.9573 625.16 41.28C624.349 42.432 622.877 43.5627 620.744 44.672C618.611 45.7387 616.819 46.272 615.368 46.272C614.301 46.272 612.573 46.08 610.184 45.696L610.312 59.264L615.24 59.456V61.312H598.28V59.456L600.648 59.264L600.968 20.224L598.536 20.8L597.896 18.88L607.816 15.744L609.864 23.04L616.264 15.552ZM618.056 41.408C619.123 38.976 619.656 36.0107 619.656 32.512C619.656 30.5493 619.336 28.8427 618.696 27.392C618.056 25.9413 617.203 24.832 616.136 24.064C615.112 23.296 614.003 22.912 612.808 22.912L609.992 25.728L610.12 38.72C612.936 40.0427 615.581 40.9387 618.056 41.408ZM645.752 15.552C649.506 15.552 652.45 16.9173 654.584 19.648C656.76 22.336 657.826 25.984 657.784 30.592L640.12 31.168C640.418 33.6853 641.293 35.6053 642.744 36.928C644.194 38.2507 646.114 38.912 648.504 38.912C651.832 38.912 654.541 37.9947 656.632 36.16L657.784 37.184C656.29 40.0427 654.264 42.2827 651.704 43.904C649.186 45.4827 646.498 46.272 643.64 46.272C639.757 46.272 636.664 44.992 634.36 42.432C632.098 39.8293 630.968 36.3307 630.968 31.936C630.968 29.3333 631.48 26.752 632.504 24.192C633.57 21.632 634.914 19.4987 636.536 17.792C637.645 17.152 639.074 16.6187 640.824 16.192C642.573 15.7653 644.216 15.552 645.752 15.552ZM648.312 28.48C648.269 25.4933 647.842 23.1253 647.032 21.376C646.221 19.6267 645.069 18.5813 643.576 18.24C642.509 19.3493 641.634 20.9067 640.952 22.912C640.312 24.8747 639.992 26.9013 639.992 28.992V29.184L648.312 28.48ZM659.843 43.456L662.211 43.264L661.891 4.92801L659.459 5.44001L658.819 3.58401L670.659 1.14441e-05L671.555 1.53601L671.235 43.264L673.603 43.456V45.312H659.843V43.456Z" fill="#FFFBDF"/>
</svg>
