<svg width="697" height="62" viewBox="0 0 697 62" fill="none" xmlns="http://www.w3.org/2000/svg">
<path d="M56.6401 43.072V45.312H38.9121V43.072L42.3681 43.008L39.3601 10.176L27.0081 38.144H25.0241L11.7761 9.98401L10.5601 43.008L14.0161 43.072V45.312H7.03186e-05V43.072L2.49607 43.008L8.64007 4.73601L5.12007 4.67201V2.43201H19.8401L30.1441 23.36L39.0401 2.43201H52.2881V4.67201L48.8961 4.73601L54.1441 43.008L56.6401 43.072ZM72.9391 15.552C76.6937 15.552 79.6377 16.9173 81.7711 19.648C83.9471 22.336 85.0137 25.984 84.9711 30.592L67.3071 31.168C67.6057 33.6853 68.4804 35.6053 69.9311 36.928C71.3817 38.2507 73.3017 38.912 75.6911 38.912C79.0191 38.912 81.7284 37.9947 83.8191 36.16L84.9711 37.184C83.4777 40.0427 81.4511 42.2827 78.8911 43.904C76.3737 45.4827 73.6857 46.272 70.8271 46.272C66.9444 46.272 63.8511 44.992 61.5471 42.432C59.2857 39.8293 58.1551 36.3307 58.1551 31.936C58.1551 29.3333 58.6671 26.752 59.6911 24.192C60.7577 21.632 62.1017 19.4987 63.7231 17.792C64.8324 17.152 66.2617 16.6187 68.0111 16.192C69.7604 15.7653 71.4031 15.552 72.9391 15.552ZM75.4991 28.48C75.4564 25.4933 75.0297 23.1253 74.2191 21.376C73.4084 19.6267 72.2564 18.5813 70.7631 18.24C69.6964 19.3493 68.8217 20.9067 68.1391 22.912C67.4991 24.8747 67.1791 26.9013 67.1791 28.992V29.184L75.4991 28.48ZM106.629 40.256L98.8211 45.888C95.6637 45.888 93.3597 45.12 91.9091 43.584C90.5011 42.0053 89.7971 39.488 89.7971 36.032V19.008H85.5091V16.96C87.3011 15.9787 89.2424 14.592 91.3331 12.8C93.4664 10.9653 95.4077 9.04534 97.1571 7.04001L99.2691 7.68001L98.9491 16.512H106.437V19.2L98.8211 19.072V33.792C98.8211 35.84 99.2051 37.3333 99.9731 38.272C100.784 39.2107 101.85 39.68 103.173 39.68L105.541 38.336L106.629 40.256ZM122.061 15.552C126.328 15.552 129.762 16.8107 132.365 19.328C134.968 21.8453 136.269 25.4293 136.269 30.08C136.269 32.0853 135.906 34.1547 135.181 36.288C134.498 38.4213 133.474 40.2987 132.109 41.92C130.744 43.2427 129.144 44.3093 127.309 45.12C125.517 45.888 123.618 46.272 121.613 46.272C117.346 46.272 113.912 45.0133 111.309 42.496C108.706 39.9787 107.405 36.3947 107.405 31.744C107.405 29.7813 107.768 27.7333 108.493 25.6C109.218 23.4667 110.264 21.5893 111.629 19.968C112.994 18.6453 114.573 17.5787 116.365 16.768C118.2 15.9573 120.098 15.552 122.061 15.552ZM116.621 28.672C116.621 32.7253 117.41 35.7547 118.989 37.76C120.61 39.7653 122.978 40.96 126.093 41.344C126.392 40.064 126.626 38.6347 126.797 37.056C126.968 35.4773 127.053 34.176 127.053 33.152C127.053 29.056 126.242 26.0267 124.621 24.064C123.042 22.0587 120.717 20.864 117.645 20.48C117.346 21.8027 117.09 23.2533 116.877 24.832C116.706 26.4107 116.621 27.6907 116.621 28.672ZM170.212 40.896L160.868 45.952C159.716 45.2693 158.862 44.3733 158.308 43.264C157.796 42.112 157.497 40.64 157.412 38.848L151.076 46.272C148.601 46.272 146.404 45.7173 144.484 44.608C142.606 43.456 141.134 41.8987 140.068 39.936C139.001 37.9307 138.468 35.6693 138.468 33.152C138.468 30.976 138.83 28.672 139.556 26.24C140.281 23.808 141.156 21.9093 142.18 20.544C142.99 19.392 144.462 18.2827 146.596 17.216C148.729 16.1067 150.521 15.552 151.972 15.552C153.252 15.552 155.001 15.7653 157.22 16.192L157.092 4.92801L154.66 5.44001L154.02 3.58401L165.86 1.14441e-05L166.756 1.53601L166.372 34.688C166.372 36.224 166.457 37.376 166.628 38.144C166.798 38.8693 167.097 39.5093 167.524 40.064L169.444 39.168L170.212 40.896ZM147.684 29.312C147.684 31.2747 148.004 32.9813 148.644 34.432C149.284 35.8827 150.116 36.992 151.14 37.76C152.206 38.528 153.337 38.912 154.532 38.912L157.412 36.032L157.284 23.104C154.51 21.7813 151.844 20.8853 149.284 20.416C148.217 22.848 147.684 25.8133 147.684 29.312ZM186.689 15.552C190.444 15.552 193.388 16.9173 195.521 19.648C197.697 22.336 198.764 25.984 198.721 30.592L181.057 31.168C181.356 33.6853 182.23 35.6053 183.681 36.928C185.132 38.2507 187.052 38.912 189.441 38.912C192.769 38.912 195.478 37.9947 197.569 36.16L198.721 37.184C197.228 40.0427 195.201 42.2827 192.641 43.904C190.124 45.4827 187.436 46.272 184.577 46.272C180.694 46.272 177.601 44.992 175.297 42.432C173.036 39.8293 171.905 36.3307 171.905 31.936C171.905 29.3333 172.417 26.752 173.441 24.192C174.508 21.632 175.852 19.4987 177.473 17.792C178.582 17.152 180.012 16.6187 181.761 16.192C183.51 15.7653 185.153 15.552 186.689 15.552ZM189.249 28.48C189.206 25.4933 188.78 23.1253 187.969 21.376C187.158 19.6267 186.006 18.5813 184.513 18.24C183.446 19.3493 182.572 20.9067 181.889 22.912C181.249 24.8747 180.929 26.9013 180.929 28.992V29.184L189.249 28.48ZM249.031 14.976C249.031 19.4987 247.09 23.0827 243.207 25.728C239.367 28.3307 233.735 29.7173 226.311 29.888V43.008L233.287 43.072V45.312H212.551V43.072L215.687 43.008V4.73601L212.551 4.67201V2.43201L224.903 2.56001L234.439 2.11201C237.511 2.11201 240.135 2.68801 242.311 3.84001C244.53 4.99201 246.194 6.54934 247.303 8.51201C248.455 10.4747 249.031 12.6293 249.031 14.976ZM237.639 16.832C237.639 14.5707 237.148 12.5227 236.167 10.688C235.186 8.81068 233.82 7.33868 232.071 6.27201C230.364 5.20534 228.444 4.67201 226.311 4.67201V27.392C229.852 27.1787 232.626 26.1547 234.631 24.32C236.636 22.4427 237.639 19.9467 237.639 16.832ZM266.002 15.552C269.756 15.552 272.7 16.9173 274.834 19.648C277.01 22.336 278.076 25.984 278.034 30.592L260.37 31.168C260.668 33.6853 261.543 35.6053 262.994 36.928C264.444 38.2507 266.364 38.912 268.754 38.912C272.082 38.912 274.791 37.9947 276.882 36.16L278.034 37.184C276.54 40.0427 274.514 42.2827 271.954 43.904C269.436 45.4827 266.748 46.272 263.89 46.272C260.007 46.272 256.914 44.992 254.61 42.432C252.348 39.8293 251.218 36.3307 251.218 31.936C251.218 29.3333 251.73 26.752 252.754 24.192C253.82 21.632 255.164 19.4987 256.786 17.792C257.895 17.152 259.324 16.6187 261.074 16.192C262.823 15.7653 264.466 15.552 266.002 15.552ZM268.562 28.48C268.519 25.4933 268.092 23.1253 267.282 21.376C266.471 19.6267 265.319 18.5813 263.826 18.24C262.759 19.3493 261.884 20.9067 261.202 22.912C260.562 24.8747 260.242 26.9013 260.242 28.992V29.184L268.562 28.48ZM310.892 43.456V45.312H297.196V43.456L299.564 43.264V29.76C299.564 27.8827 299.03 26.432 297.964 25.408C296.94 24.384 295.51 23.8507 293.676 23.808L291.628 25.92L291.372 43.264L293.74 43.456V45.312H279.98V43.456L282.348 43.264L282.156 20.352L279.724 20.928L279.084 19.008L289.196 15.872L291.436 23.04L296.748 15.424C300.801 15.424 303.788 16.384 305.708 18.304C307.628 20.224 308.588 23.1893 308.588 27.2V43.264L310.892 43.456ZM332.043 41.728C334.432 41.8987 336.459 42.3893 338.123 43.2C339.829 44.0107 341.152 45.0773 342.091 46.4C341.28 48.832 339.979 51.2213 338.187 53.568C336.437 55.9147 334.304 57.8347 331.787 59.328C329.312 60.864 326.645 61.632 323.787 61.632C321.013 61.632 318.773 60.928 317.067 59.52C315.403 58.1547 314.571 56.4053 314.571 54.272C314.571 52.48 315.019 50.4533 315.915 48.192C314.379 47.4667 313.099 46.1653 312.075 44.288L318.539 37.056C316.917 36.16 315.637 34.9653 314.699 33.472C313.803 31.936 313.355 30.2293 313.355 28.352C313.355 26.6027 313.717 24.8747 314.443 23.168C315.168 21.4613 316.085 20.0107 317.195 18.816C318.261 17.92 319.691 17.152 321.483 16.512C323.317 15.872 325.237 15.552 327.243 15.552C328.693 15.552 329.952 15.7013 331.019 16L336.331 6.97601C337.184 6.80534 338.08 6.72001 339.019 6.72001C340.811 6.72001 342.539 7.08268 344.203 7.80801L339.723 16.128C338.357 15.5733 337.013 15.296 335.691 15.296C335.264 15.296 334.709 15.3387 334.027 15.424L333.067 16.704C334.987 17.5573 336.501 18.7947 337.611 20.416C338.72 22.0373 339.275 23.9147 339.275 26.048C339.275 27.712 338.891 29.376 338.123 31.04C337.397 32.6613 336.501 34.1333 335.435 35.456C334.368 36.3947 332.917 37.184 331.083 37.824C329.291 38.4213 327.413 38.72 325.451 38.72C323.573 38.72 321.845 38.4213 320.267 37.824L318.795 39.616C319.051 40 319.605 40.3413 320.459 40.64C321.312 40.9387 322.336 41.1093 323.531 41.152L332.043 41.728ZM330.827 28.416C330.827 25.7707 330.144 23.7013 328.779 22.208C327.413 20.7147 325.493 19.7973 323.019 19.456C322.208 21.8027 321.803 23.9787 321.803 25.984C321.803 28.544 322.485 30.5707 323.851 32.064C325.216 33.5573 327.157 34.4747 329.675 34.816C330.443 32.8107 330.827 30.6773 330.827 28.416ZM327.307 54.912C328.587 54.912 329.845 54.7627 331.083 54.464C332.32 54.208 333.365 53.888 334.219 53.504C335.072 53.12 335.584 52.7787 335.755 52.48C335.499 51.8827 334.731 51.2853 333.451 50.688C332.213 50.1333 330.464 49.792 328.203 49.664L321.099 49.28C320.288 49.2373 319.307 49.1307 318.155 48.96C318.368 50.6667 319.285 52.0747 320.907 53.184C322.571 54.336 324.704 54.912 327.307 54.912ZM374.352 41.024L365.456 46.08C364.09 45.3547 363.088 44.3733 362.448 43.136C361.808 41.856 361.488 40.2347 361.488 38.272L355.984 46.272C351.973 46.272 349.008 45.312 347.088 43.392C345.168 41.4293 344.208 38.4213 344.208 34.368V18.56L341.84 18.368V16.512H353.232V31.808C353.232 33.728 353.722 35.2213 354.704 36.288C355.728 37.312 357.072 37.8453 358.736 37.888L361.488 35.328V18.56L359.184 18.368V16.512H370.512V34.56C370.512 36.1387 370.597 37.312 370.768 38.08C370.981 38.848 371.301 39.5093 371.728 40.064L373.648 39.104L374.352 41.024ZM422.652 43.456V45.312H408.956V43.456L411.324 43.264V29.76C411.324 27.8827 410.833 26.432 409.852 25.408C408.913 24.3413 407.591 23.7867 405.884 23.744L403.516 26.112V27.2V43.264L405.82 43.456V45.312H392.124V43.456L394.492 43.264V29.76C394.492 27.8827 394.001 26.432 393.02 25.408C392.081 24.384 390.759 23.8507 389.052 23.808L386.94 25.92L386.684 43.264L389.052 43.456V45.312H375.292V43.456L377.66 43.264L377.468 20.352L375.036 20.928L374.396 19.008L384.508 15.872L386.748 23.04L392.06 15.424C395.345 15.424 397.884 16.0853 399.676 17.408C401.511 18.7307 402.684 20.7787 403.196 23.552L408.892 15.36C412.817 15.36 415.697 16.32 417.532 18.24C419.409 20.16 420.348 23.1467 420.348 27.2V43.264L422.652 43.456ZM442.264 15.552C444.739 15.552 446.915 16.128 448.792 17.28C450.712 18.3893 452.184 19.9467 453.208 21.952C454.275 23.9147 454.808 26.1547 454.808 28.672C454.808 30.848 454.445 33.1733 453.72 35.648C453.037 38.08 452.184 39.9573 451.16 41.28C450.349 42.432 448.877 43.5627 446.744 44.672C444.611 45.7387 442.819 46.272 441.368 46.272C440.301 46.272 438.573 46.08 436.184 45.696L436.312 59.264L441.24 59.456V61.312H424.28V59.456L426.648 59.264L426.968 20.224L424.536 20.8L423.896 18.88L433.816 15.744L435.864 23.04L442.264 15.552ZM444.056 41.408C445.123 38.976 445.656 36.0107 445.656 32.512C445.656 30.5493 445.336 28.8427 444.696 27.392C444.056 25.9413 443.203 24.832 442.136 24.064C441.112 23.296 440.003 22.912 438.808 22.912L435.992 25.728L436.12 38.72C438.936 40.0427 441.581 40.9387 444.056 41.408ZM489.352 41.024L480.456 46.08C479.09 45.3547 478.088 44.3733 477.448 43.136C476.808 41.856 476.488 40.2347 476.488 38.272L470.984 46.272C466.973 46.272 464.008 45.312 462.088 43.392C460.168 41.4293 459.208 38.4213 459.208 34.368V18.56L456.84 18.368V16.512H468.232V31.808C468.232 33.728 468.722 35.2213 469.704 36.288C470.728 37.312 472.072 37.8453 473.736 37.888L476.488 35.328V18.56L474.184 18.368V16.512H485.512V34.56C485.512 36.1387 485.597 37.312 485.768 38.08C485.981 38.848 486.301 39.5093 486.728 40.064L488.648 39.104L489.352 41.024ZM489.78 43.456L492.148 43.264L491.828 4.92801L489.396 5.44001L488.756 3.58401L500.596 1.14441e-05L501.492 1.53601L501.172 43.264L503.54 43.456V45.312H489.78V43.456ZM531.577 41.984L522.169 46.4C521.017 45.5893 520.227 44.48 519.801 43.072C518.265 44.0107 516.707 44.7787 515.129 45.376C513.593 45.9733 512.249 46.272 511.097 46.272C509.347 46.272 507.918 45.6533 506.809 44.416C505.699 43.1787 505.145 41.6 505.145 39.68C505.145 38.8267 505.23 37.9093 505.401 36.928C505.614 35.904 505.87 35.0933 506.169 34.496L519.737 32.32L519.865 30.464C519.95 28.544 519.545 27.0507 518.649 25.984C517.753 24.8747 516.302 24.32 514.297 24.32C513.401 24.32 512.462 24.4267 511.481 24.64C510.499 24.8107 509.667 25.0453 508.985 25.344L507.961 27.52L506.233 26.88L509.177 17.664C512.462 16.256 515.577 15.552 518.521 15.552C521.55 15.552 524.025 16.3627 525.945 17.984C527.865 19.5627 528.825 22.0587 528.825 25.472L528.761 26.752L528.121 35.392L527.993 37.696C527.993 38.464 528.057 39.0827 528.185 39.552C528.313 39.9787 528.526 40.4267 528.825 40.896L530.809 40.128L531.577 41.984ZM517.049 41.664C517.731 41.664 518.521 41.408 519.417 40.896L519.353 39.552L519.417 38.144L519.609 34.496L514.681 35.648C514.51 36.2027 514.425 36.9493 514.425 37.888C514.425 39.168 514.681 40.128 515.193 40.768C515.705 41.3653 516.323 41.664 517.049 41.664ZM564.079 43.456V45.312H550.383V43.456L552.751 43.264V29.76C552.751 27.8827 552.218 26.432 551.151 25.408C550.127 24.384 548.698 23.8507 546.863 23.808L544.815 25.92L544.559 43.264L546.927 43.456V45.312H533.167V43.456L535.535 43.264L535.343 20.352L532.911 20.928L532.271 19.008L542.383 15.872L544.623 23.04L549.935 15.424C553.988 15.424 556.975 16.384 558.895 18.304C560.815 20.224 561.775 23.1893 561.775 27.2V43.264L564.079 43.456ZM577.801 43.072L580.937 43.008V4.73601L577.801 4.67201V2.43201L590.153 2.56001L599.241 1.79201C605.598 1.79201 610.505 3.56268 613.961 7.10401C617.46 10.6453 619.209 15.7653 619.209 22.464C619.209 26.9867 618.334 30.976 616.585 34.432C614.836 37.8453 612.212 40.512 608.713 42.432C605.214 44.352 600.948 45.312 595.913 45.312H577.801V43.072ZM593.353 43.072C597.918 43.072 601.46 41.4933 603.977 38.336C606.537 35.1787 607.817 30.4213 607.817 24.064C607.817 19.84 607.092 16.2987 605.641 13.44C604.233 10.5387 602.292 8.38401 599.817 6.97601C597.385 5.52534 594.633 4.80001 591.561 4.80001V43.072H593.353ZM648.139 41.984L638.731 46.4C637.579 45.5893 636.79 44.48 636.363 43.072C634.827 44.0107 633.27 44.7787 631.691 45.376C630.155 45.9733 628.811 46.272 627.659 46.272C625.91 46.272 624.48 45.6533 623.371 44.416C622.262 43.1787 621.707 41.6 621.707 39.68C621.707 38.8267 621.792 37.9093 621.963 36.928C622.176 35.904 622.432 35.0933 622.731 34.496L636.299 32.32L636.427 30.464C636.512 28.544 636.107 27.0507 635.211 25.984C634.315 24.8747 632.864 24.32 630.859 24.32C629.963 24.32 629.024 24.4267 628.043 24.64C627.062 24.8107 626.23 25.0453 625.547 25.344L624.523 27.52L622.795 26.88L625.739 17.664C629.024 16.256 632.139 15.552 635.083 15.552C638.112 15.552 640.587 16.3627 642.507 17.984C644.427 19.5627 645.387 22.0587 645.387 25.472L645.323 26.752L644.683 35.392L644.555 37.696C644.555 38.464 644.619 39.0827 644.747 39.552C644.875 39.9787 645.088 40.4267 645.387 40.896L647.371 40.128L648.139 41.984ZM633.611 41.664C634.294 41.664 635.083 41.408 635.979 40.896L635.915 39.552L635.979 38.144L636.171 34.496L631.243 35.648C631.072 36.2027 630.987 36.9493 630.987 37.888C630.987 39.168 631.243 40.128 631.755 40.768C632.267 41.3653 632.886 41.664 633.611 41.664ZM669.129 40.256L661.321 45.888C658.164 45.888 655.86 45.12 654.409 43.584C653.001 42.0053 652.297 39.488 652.297 36.032V19.008H648.009V16.96C649.801 15.9787 651.742 14.592 653.833 12.8C655.966 10.9653 657.908 9.04534 659.657 7.04001L661.769 7.68001L661.449 16.512H668.937V19.2L661.321 19.072V33.792C661.321 35.84 661.705 37.3333 662.473 38.272C663.284 39.2107 664.35 39.68 665.673 39.68L668.041 38.336L669.129 40.256ZM696.514 41.984L687.106 46.4C685.954 45.5893 685.165 44.48 684.738 43.072C683.202 44.0107 681.645 44.7787 680.066 45.376C678.53 45.9733 677.186 46.272 676.034 46.272C674.285 46.272 672.855 45.6533 671.746 44.416C670.637 43.1787 670.082 41.6 670.082 39.68C670.082 38.8267 670.167 37.9093 670.338 36.928C670.551 35.904 670.807 35.0933 671.106 34.496L684.674 32.32L684.802 30.464C684.887 28.544 684.482 27.0507 683.586 25.984C682.69 24.8747 681.239 24.32 679.234 24.32C678.338 24.32 677.399 24.4267 676.418 24.64C675.437 24.8107 674.605 25.0453 673.922 25.344L672.898 27.52L671.17 26.88L674.114 17.664C677.399 16.256 680.514 15.552 683.458 15.552C686.487 15.552 688.962 16.3627 690.882 17.984C692.802 19.5627 693.762 22.0587 693.762 25.472L693.698 26.752L693.058 35.392L692.93 37.696C692.93 38.464 692.994 39.0827 693.122 39.552C693.25 39.9787 693.463 40.4267 693.762 40.896L695.746 40.128L696.514 41.984ZM681.986 41.664C682.669 41.664 683.458 41.408 684.354 40.896L684.29 39.552L684.354 38.144L684.546 34.496L679.618 35.648C679.447 36.2027 679.362 36.9493 679.362 37.888C679.362 39.168 679.618 40.128 680.13 40.768C680.642 41.3653 681.261 41.664 681.986 41.664Z" fill="#EF874B"/>
</svg>
