<svg xmlns="http://www.w3.org/2000/svg" xmlns:xlink="http://www.w3.org/1999/xlink" width="500" zoomAndPan="magnify" viewBox="0 0 375 374.999991" height="500" preserveAspectRatio="xMidYMid meet" version="1.0"><defs><clipPath id="95a13c98d3"><path d="M 0 157 L 375 157 L 375 218.8125 L 0 218.8125 Z M 0 157 " clip-rule="nonzero"/></clipPath></defs><g clip-path="url(#95a13c98d3)"><path fill="#f4ad5b" d="M 61.125 157.511719 C 53.523438 156.558594 45.585938 159.019531 39.753906 164.886719 C 33.917969 170.753906 31.476562 178.742188 32.421875 186.386719 C 40.019531 187.335938 47.960938 184.878906 53.792969 179.011719 C 59.625 173.140625 62.070312 165.15625 61.125 157.511719 Z M 1.152344 217.847656 C 8.75 218.800781 16.6875 216.339844 22.523438 210.472656 C 28.355469 204.605469 30.796875 196.617188 29.851562 188.972656 C 22.253906 188.023438 14.316406 190.480469 8.480469 196.347656 C 2.648438 202.21875 0.207031 210.207031 1.152344 217.847656 Z M 6.753906 212.214844 C 7.28125 207.78125 9.261719 203.613281 12.480469 200.375 C 15.699219 197.136719 19.84375 195.140625 24.25 194.609375 C 23.722656 199.042969 21.742188 203.210938 18.519531 206.449219 C 15.300781 209.6875 11.15625 211.679688 6.753906 212.214844 Z M 10.242188 208.703125 C 11.105469 206.285156 12.492188 204.074219 14.328125 202.230469 C 16.160156 200.386719 18.355469 198.988281 20.761719 198.121094 C 19.898438 200.539062 18.507812 202.746094 16.675781 204.59375 C 14.84375 206.4375 12.644531 207.835938 10.242188 208.703125 Z M 1.152344 157.511719 C 8.75 156.5625 16.6875 159.019531 22.523438 164.886719 C 28.355469 170.753906 30.796875 178.742188 29.851562 186.386719 C 22.253906 187.339844 14.316406 184.878906 8.480469 179.011719 C 2.648438 173.144531 0.203125 165.15625 1.152344 157.511719 Z M 6.75 163.148438 C 7.28125 167.578125 9.261719 171.75 12.480469 174.988281 C 15.699219 178.226562 19.84375 180.21875 24.25 180.75 C 23.722656 176.316406 21.738281 172.148438 18.519531 168.910156 C 15.300781 165.671875 11.15625 163.679688 6.75 163.148438 Z M 10.242188 166.65625 C 11.101562 169.074219 12.492188 171.285156 14.324219 173.128906 C 16.160156 174.976562 18.355469 176.371094 20.757812 177.242188 C 19.898438 174.824219 18.507812 172.613281 16.675781 170.769531 C 14.839844 168.921875 12.644531 167.527344 10.242188 166.65625 Z M 373.84375 217.847656 C 366.246094 218.800781 358.304688 216.339844 352.472656 210.472656 C 346.636719 204.605469 344.195312 196.617188 345.140625 188.972656 C 352.738281 188.023438 360.679688 190.480469 366.511719 196.347656 C 372.347656 202.21875 374.789062 210.207031 373.84375 217.847656 Z M 368.242188 212.214844 C 367.714844 207.78125 365.734375 203.613281 362.511719 200.375 C 359.292969 197.136719 355.148438 195.140625 350.742188 194.609375 C 351.273438 199.042969 353.253906 203.210938 356.472656 206.449219 C 359.691406 209.6875 363.835938 211.679688 368.242188 212.214844 Z M 364.753906 208.703125 C 363.890625 206.285156 362.5 204.074219 360.667969 202.230469 C 358.835938 200.386719 356.636719 198.988281 354.234375 198.121094 C 355.097656 200.539062 356.484375 202.746094 358.320312 204.59375 C 360.152344 206.4375 362.347656 207.835938 364.753906 208.703125 Z M 313.871094 217.847656 C 321.46875 218.800781 329.40625 216.34375 335.242188 210.476562 C 341.074219 204.605469 343.519531 196.617188 342.570312 188.976562 C 334.972656 188.023438 327.035156 190.480469 321.199219 196.351562 C 315.367188 202.21875 312.925781 210.207031 313.871094 217.851562 Z M 319.472656 212.214844 C 320 207.78125 321.980469 203.613281 325.199219 200.375 C 328.417969 197.136719 332.5625 195.144531 336.96875 194.609375 C 336.441406 199.042969 334.460938 203.210938 331.238281 206.449219 C 328.019531 209.6875 323.878906 211.683594 319.472656 212.214844 Z M 322.960938 208.703125 C 323.824219 206.285156 325.210938 204.074219 327.046875 202.230469 C 328.878906 200.386719 331.074219 198.988281 333.480469 198.121094 C 332.617188 200.539062 331.226562 202.75 329.394531 204.59375 C 327.5625 206.4375 325.363281 207.835938 322.960938 208.703125 Z M 311.296875 217.851562 C 303.699219 218.800781 295.761719 216.34375 289.929688 210.476562 C 284.09375 204.605469 281.652344 196.621094 282.597656 188.976562 C 290.195312 188.023438 298.136719 190.480469 303.96875 196.351562 C 309.800781 202.21875 312.246094 210.207031 311.296875 217.851562 Z M 305.699219 212.214844 C 305.171875 207.785156 303.1875 203.613281 299.96875 200.375 C 296.75 197.136719 292.605469 195.144531 288.199219 194.613281 C 288.730469 199.042969 290.710938 203.214844 293.929688 206.453125 C 297.148438 209.691406 301.292969 211.683594 305.699219 212.214844 Z M 302.210938 208.703125 C 301.347656 206.289062 299.957031 204.078125 298.125 202.230469 C 296.292969 200.386719 294.09375 198.988281 291.691406 198.121094 C 292.554688 200.539062 293.941406 202.75 295.777344 204.59375 C 297.609375 206.4375 299.804688 207.835938 302.210938 208.703125 Z M 188.785156 217.851562 C 196.382812 218.804688 204.320312 216.34375 210.152344 210.476562 C 215.988281 204.609375 218.429688 196.621094 217.484375 188.976562 C 209.886719 188.023438 201.945312 190.484375 196.113281 196.351562 C 190.28125 202.21875 187.835938 210.207031 188.785156 217.851562 Z M 194.382812 212.214844 C 194.910156 207.785156 196.894531 203.613281 200.113281 200.375 C 203.332031 197.136719 207.476562 195.144531 211.882812 194.613281 C 211.351562 199.046875 209.371094 203.214844 206.152344 206.453125 C 202.933594 209.691406 198.789062 211.683594 194.382812 212.214844 Z M 197.871094 208.707031 C 198.734375 206.289062 200.125 204.078125 201.957031 202.234375 C 203.789062 200.386719 205.988281 198.992188 208.390625 198.121094 C 207.527344 200.539062 206.140625 202.75 204.304688 204.597656 C 202.472656 206.441406 200.277344 207.839844 197.871094 208.707031 Z M 186.210938 217.851562 C 178.613281 218.804688 170.675781 216.34375 164.839844 210.476562 C 159.007812 204.609375 156.5625 196.621094 157.511719 188.976562 C 165.109375 188.027344 173.046875 190.484375 178.882812 196.351562 C 184.714844 202.222656 187.15625 210.207031 186.210938 217.851562 Z M 180.609375 212.21875 C 180.082031 207.785156 178.101562 203.617188 174.882812 200.378906 C 171.664062 197.140625 167.519531 195.144531 163.113281 194.613281 C 163.640625 199.046875 165.621094 203.214844 168.84375 206.453125 C 172.0625 209.691406 176.203125 211.683594 180.609375 212.21875 Z M 177.121094 208.707031 C 176.257812 206.289062 174.871094 204.078125 173.035156 202.234375 C 171.203125 200.390625 169.007812 198.992188 166.601562 198.125 C 167.464844 200.539062 168.855469 202.75 170.6875 204.597656 C 172.519531 206.441406 174.71875 207.839844 177.121094 208.707031 Z M 248.753906 217.851562 C 241.15625 218.804688 233.21875 216.347656 227.382812 210.480469 C 221.550781 204.609375 219.109375 196.621094 220.054688 188.980469 C 227.652344 188.027344 235.589844 190.484375 241.425781 196.351562 C 247.257812 202.222656 249.703125 210.210938 248.753906 217.855469 Z M 243.15625 212.21875 C 242.628906 207.785156 240.644531 203.617188 237.425781 200.378906 C 234.207031 197.140625 230.0625 195.148438 225.65625 194.613281 C 226.183594 199.046875 228.167969 203.214844 231.386719 206.453125 C 234.605469 209.691406 238.75 211.6875 243.15625 212.21875 Z M 239.664062 208.707031 C 238.804688 206.289062 237.414062 204.078125 235.582031 202.234375 C 233.746094 200.390625 231.550781 198.992188 229.148438 198.125 C 230.007812 200.542969 231.398438 202.753906 233.230469 204.597656 C 235.066406 206.441406 237.261719 207.839844 239.664062 208.707031 Z M 251.328125 217.855469 C 258.925781 218.804688 266.863281 216.347656 272.699219 210.480469 C 278.53125 204.609375 280.972656 196.625 280.027344 188.980469 C 272.429688 188.027344 264.492188 190.484375 258.65625 196.355469 C 252.824219 202.222656 250.382812 210.210938 251.328125 217.855469 Z M 256.929688 212.21875 C 257.457031 207.789062 259.4375 203.617188 262.65625 200.378906 C 265.875 197.140625 270.019531 195.148438 274.425781 194.617188 C 273.898438 199.046875 271.917969 203.21875 268.695312 206.457031 C 265.476562 209.695312 261.332031 211.6875 256.929688 212.21875 Z M 260.417969 208.707031 C 261.277344 206.292969 262.667969 204.082031 264.5 202.234375 C 266.335938 200.390625 268.53125 198.992188 270.9375 198.125 C 270.074219 200.542969 268.683594 202.753906 266.851562 204.597656 C 265.015625 206.441406 262.820312 207.839844 260.417969 208.707031 Z M 123.667969 217.855469 C 116.070312 218.808594 108.132812 216.347656 102.296875 210.480469 C 96.464844 204.613281 94.019531 196.625 94.96875 188.980469 C 102.5625 188.027344 110.503906 190.488281 116.339844 196.355469 C 122.171875 202.222656 124.613281 210.210938 123.667969 217.855469 Z M 118.066406 212.21875 C 117.539062 207.789062 115.558594 203.617188 112.339844 200.378906 C 109.121094 197.140625 104.976562 195.148438 100.570312 194.617188 C 101.097656 199.050781 103.078125 203.21875 106.296875 206.457031 C 109.515625 209.695312 113.660156 211.6875 118.066406 212.21875 Z M 114.578125 208.710938 C 113.714844 206.292969 112.328125 204.082031 110.492188 202.238281 C 108.660156 200.390625 106.460938 198.996094 104.058594 198.125 C 104.921875 200.542969 106.3125 202.753906 108.144531 204.601562 C 109.976562 206.445312 112.175781 207.84375 114.578125 208.710938 Z M 126.238281 217.855469 C 133.835938 218.808594 141.777344 216.347656 147.609375 210.480469 C 153.445312 204.613281 155.886719 196.625 154.941406 188.980469 C 147.34375 188.03125 139.402344 190.488281 133.570312 196.355469 C 127.734375 202.226562 125.292969 210.210938 126.238281 217.855469 Z M 131.839844 212.222656 C 132.367188 207.789062 134.347656 203.621094 137.570312 200.382812 C 140.789062 197.144531 144.933594 195.148438 149.339844 194.617188 C 148.808594 199.050781 146.828125 203.21875 143.609375 206.457031 C 140.390625 209.695312 136.246094 211.6875 131.839844 212.222656 Z M 135.328125 208.710938 C 136.191406 206.292969 137.582031 204.082031 139.414062 202.238281 C 141.246094 200.394531 143.445312 198.996094 145.847656 198.128906 C 144.984375 200.542969 143.597656 202.753906 141.761719 204.601562 C 139.929688 206.445312 137.734375 207.84375 135.328125 208.710938 Z M 63.695312 217.855469 C 71.292969 218.808594 79.230469 216.351562 85.066406 210.484375 C 90.898438 204.613281 93.339844 196.625 92.394531 188.984375 C 84.796875 188.03125 76.859375 190.488281 71.023438 196.355469 C 65.191406 202.226562 62.75 210.214844 63.695312 217.859375 Z M 69.292969 212.222656 C 69.824219 207.789062 71.804688 203.621094 75.023438 200.382812 C 78.242188 197.144531 82.386719 195.152344 86.792969 194.617188 C 86.265625 199.050781 84.285156 203.21875 81.0625 206.457031 C 77.84375 209.695312 73.699219 211.691406 69.292969 212.222656 Z M 72.785156 208.710938 C 73.644531 206.292969 75.035156 204.082031 76.867188 202.238281 C 78.703125 200.394531 80.898438 198.996094 83.300781 198.128906 C 82.441406 200.546875 81.050781 202.757812 79.21875 204.601562 C 77.382812 206.445312 75.1875 207.84375 72.785156 208.710938 Z M 61.121094 217.859375 C 53.523438 218.808594 45.585938 216.351562 39.75 210.484375 C 33.917969 204.613281 31.476562 196.628906 32.421875 188.984375 C 40.019531 188.03125 47.957031 190.488281 53.792969 196.359375 C 59.625 202.226562 62.070312 210.214844 61.121094 217.859375 Z M 55.523438 212.222656 C 54.992188 207.789062 53.011719 203.621094 49.792969 200.382812 C 46.574219 197.144531 42.429688 195.152344 38.023438 194.621094 C 38.550781 199.050781 40.535156 203.222656 43.753906 206.460938 C 46.972656 209.699219 51.117188 211.691406 55.523438 212.222656 Z M 52.03125 208.710938 C 51.171875 206.296875 49.78125 204.085938 47.949219 202.238281 C 46.113281 200.394531 43.917969 198.996094 41.515625 198.128906 C 42.375 200.546875 43.765625 202.757812 45.597656 204.601562 C 47.433594 206.445312 49.628906 207.84375 52.03125 208.710938 Z M 373.84375 157.523438 C 366.246094 156.570312 358.304688 159.027344 352.472656 164.894531 C 346.640625 170.765625 344.195312 178.753906 345.144531 186.394531 C 352.738281 187.347656 360.679688 184.890625 366.511719 179.023438 C 372.347656 173.152344 374.789062 165.164062 373.84375 157.519531 Z M 368.242188 163.15625 C 367.714844 167.589844 365.734375 171.757812 362.511719 174.996094 C 359.292969 178.234375 355.152344 180.226562 350.746094 180.761719 C 351.273438 176.328125 353.253906 172.160156 356.472656 168.921875 C 359.691406 165.683594 363.835938 163.6875 368.242188 163.15625 Z M 364.753906 166.667969 C 363.890625 169.085938 362.503906 171.296875 360.667969 173.140625 C 358.835938 174.984375 356.636719 176.382812 354.234375 177.25 C 355.097656 174.832031 356.488281 172.621094 358.320312 170.777344 C 360.152344 168.933594 362.351562 167.535156 364.753906 166.667969 Z M 313.871094 157.519531 C 321.46875 156.570312 329.410156 159.027344 335.242188 164.894531 C 341.074219 170.765625 343.519531 178.75 342.574219 186.394531 C 334.976562 187.347656 327.035156 184.890625 321.203125 179.019531 C 315.367188 173.152344 312.925781 165.164062 313.871094 157.519531 Z M 319.472656 163.15625 C 320 167.585938 321.980469 171.757812 325.203125 174.996094 C 328.421875 178.234375 332.5625 180.226562 336.96875 180.757812 C 336.441406 176.328125 334.460938 172.15625 331.242188 168.917969 C 328.023438 165.679688 323.878906 163.6875 319.472656 163.15625 Z M 322.960938 166.667969 C 323.824219 169.082031 325.214844 171.292969 327.046875 173.140625 C 328.878906 174.984375 331.078125 176.382812 333.480469 177.25 C 332.617188 174.832031 331.230469 172.621094 329.394531 170.777344 C 327.5625 168.933594 325.363281 167.535156 322.960938 166.667969 Z M 311.300781 157.519531 C 303.703125 156.566406 295.761719 159.027344 289.929688 164.894531 C 284.09375 170.761719 281.652344 178.75 282.597656 186.394531 C 290.195312 187.347656 298.136719 184.886719 303.96875 179.019531 C 309.804688 173.152344 312.246094 165.164062 311.300781 157.519531 Z M 305.699219 163.15625 C 305.171875 167.585938 303.191406 171.757812 299.96875 174.996094 C 296.75 178.234375 292.605469 180.226562 288.203125 180.757812 C 288.730469 176.324219 290.710938 172.15625 293.929688 168.917969 C 297.148438 165.679688 301.292969 163.6875 305.699219 163.15625 Z M 302.210938 166.664062 C 301.347656 169.082031 299.957031 171.292969 298.125 173.136719 C 296.292969 174.984375 294.09375 176.378906 291.691406 177.25 C 292.554688 174.832031 293.941406 172.621094 295.777344 170.773438 C 297.609375 168.929688 299.808594 167.53125 302.210938 166.664062 Z M 188.785156 157.519531 C 196.382812 156.566406 204.320312 159.027344 210.15625 164.894531 C 215.988281 170.761719 218.429688 178.75 217.484375 186.394531 C 209.886719 187.34375 201.949219 184.886719 196.113281 179.019531 C 190.28125 173.148438 187.839844 165.164062 188.785156 157.519531 Z M 194.382812 163.152344 C 194.914062 167.585938 196.894531 171.753906 200.113281 174.992188 C 203.332031 178.230469 207.476562 180.226562 211.882812 180.757812 C 211.355469 176.324219 209.371094 172.15625 206.152344 168.917969 C 202.933594 165.679688 198.789062 163.6875 194.382812 163.152344 Z M 197.875 166.664062 C 198.734375 169.082031 200.125 171.292969 201.957031 173.136719 C 203.792969 174.980469 205.988281 176.378906 208.390625 177.246094 C 207.53125 174.832031 206.140625 172.621094 204.308594 170.773438 C 202.472656 168.929688 200.277344 167.53125 197.875 166.664062 Z M 186.210938 157.519531 C 178.613281 156.566406 170.675781 159.023438 164.839844 164.890625 C 159.007812 170.761719 156.566406 178.75 157.511719 186.390625 C 165.109375 187.34375 173.046875 184.886719 178.882812 179.019531 C 184.714844 173.148438 187.15625 165.160156 186.210938 157.515625 Z M 180.613281 163.152344 C 180.082031 167.585938 178.101562 171.753906 174.882812 174.992188 C 171.664062 178.230469 167.519531 180.222656 163.113281 180.757812 C 163.640625 176.324219 165.625 172.15625 168.84375 168.917969 C 172.0625 165.679688 176.207031 163.683594 180.613281 163.152344 Z M 177.121094 166.664062 C 176.261719 169.082031 174.871094 171.292969 173.039062 173.136719 C 171.203125 174.980469 169.007812 176.378906 166.605469 177.246094 C 167.464844 174.828125 168.855469 172.617188 170.6875 170.773438 C 172.523438 168.929688 174.71875 167.53125 177.121094 166.664062 Z M 248.757812 157.515625 C 241.160156 156.566406 233.21875 159.023438 227.386719 164.890625 C 221.550781 170.761719 219.109375 178.746094 220.054688 186.390625 C 227.652344 187.34375 235.59375 184.886719 241.425781 179.015625 C 247.261719 173.148438 249.703125 165.160156 248.757812 157.515625 Z M 243.15625 163.152344 C 242.628906 167.585938 240.648438 171.753906 237.425781 174.992188 C 234.207031 178.230469 230.0625 180.222656 225.65625 180.753906 C 226.1875 176.324219 228.167969 172.152344 231.386719 168.914062 C 234.605469 165.675781 238.75 163.683594 243.15625 163.152344 Z M 239.667969 166.664062 C 238.804688 169.078125 237.414062 171.289062 235.582031 173.136719 C 233.75 174.980469 231.550781 176.378906 229.148438 177.246094 C 230.011719 174.828125 231.398438 172.617188 233.234375 170.773438 C 235.066406 168.929688 237.261719 167.53125 239.667969 166.664062 Z M 251.328125 157.515625 C 258.925781 156.5625 266.863281 159.023438 272.699219 164.890625 C 278.53125 170.757812 280.976562 178.746094 280.027344 186.390625 C 272.433594 187.34375 264.492188 184.882812 258.65625 179.015625 C 252.824219 173.148438 250.382812 165.160156 251.328125 157.515625 Z M 256.929688 163.152344 C 257.457031 167.582031 259.4375 171.753906 262.65625 174.992188 C 265.875 178.230469 270.019531 180.222656 274.425781 180.753906 C 273.898438 176.320312 271.917969 172.152344 268.699219 168.914062 C 265.480469 165.675781 261.335938 163.683594 256.929688 163.152344 Z M 260.417969 166.660156 C 261.28125 169.078125 262.667969 171.289062 264.503906 173.132812 C 266.335938 174.980469 268.535156 176.375 270.9375 177.246094 C 270.074219 174.828125 268.683594 172.617188 266.851562 170.769531 C 265.019531 168.925781 262.820312 167.527344 260.417969 166.660156 Z M 123.667969 157.515625 C 116.070312 156.5625 108.132812 159.023438 102.296875 164.890625 C 96.464844 170.757812 94.023438 178.746094 94.96875 186.390625 C 102.566406 187.339844 110.503906 184.882812 116.339844 179.015625 C 122.171875 173.144531 124.613281 165.160156 123.667969 157.515625 Z M 118.066406 163.148438 C 117.539062 167.582031 115.558594 171.75 112.339844 174.988281 C 109.121094 178.226562 104.976562 180.222656 100.570312 180.753906 C 101.097656 176.320312 103.078125 172.152344 106.300781 168.914062 C 109.519531 165.675781 113.664062 163.683594 118.066406 163.148438 Z M 114.578125 166.660156 C 113.71875 169.078125 112.328125 171.289062 110.496094 173.132812 C 108.660156 174.976562 106.464844 176.375 104.058594 177.242188 C 104.921875 174.828125 106.3125 172.617188 108.144531 170.769531 C 109.980469 168.925781 112.175781 167.527344 114.578125 166.660156 Z M 126.242188 157.515625 C 133.839844 156.5625 141.777344 159.019531 147.613281 164.886719 C 153.445312 170.757812 155.886719 178.746094 154.941406 186.390625 C 147.34375 187.339844 139.40625 184.882812 133.570312 179.015625 C 127.738281 173.144531 125.292969 165.15625 126.242188 157.511719 Z M 131.839844 163.148438 C 132.371094 167.582031 134.351562 171.75 137.570312 174.988281 C 140.789062 178.226562 144.933594 180.21875 149.339844 180.753906 C 148.8125 176.320312 146.828125 172.152344 143.609375 168.914062 C 140.390625 165.675781 136.246094 163.679688 131.839844 163.148438 Z M 135.332031 166.660156 C 136.191406 169.078125 137.582031 171.289062 139.414062 173.132812 C 141.25 174.976562 143.445312 176.375 145.847656 177.242188 C 144.988281 174.824219 143.597656 172.613281 141.765625 170.769531 C 139.929688 168.925781 137.734375 167.527344 135.332031 166.660156 Z M 63.695312 157.511719 C 71.292969 156.5625 79.230469 159.019531 85.066406 164.886719 C 90.898438 170.757812 93.34375 178.742188 92.394531 186.386719 C 84.800781 187.339844 76.859375 184.882812 71.023438 179.011719 C 65.191406 173.144531 62.75 165.15625 63.695312 157.511719 Z M 69.296875 163.148438 C 69.824219 167.582031 71.804688 171.75 75.023438 174.988281 C 78.242188 178.226562 82.386719 180.21875 86.792969 180.75 C 86.265625 176.320312 84.285156 172.148438 81.066406 168.910156 C 77.84375 165.671875 73.703125 163.679688 69.296875 163.148438 Z M 72.785156 166.660156 C 73.648438 169.074219 75.035156 171.285156 76.871094 173.132812 C 78.703125 174.976562 80.898438 176.375 83.304688 177.242188 C 82.441406 174.824219 81.050781 172.613281 79.21875 170.769531 C 77.386719 168.925781 75.1875 167.527344 72.785156 166.660156 Z M 55.523438 163.148438 C 54.992188 167.582031 53.011719 171.75 49.792969 174.988281 C 46.574219 178.226562 42.429688 180.21875 38.023438 180.75 C 38.550781 176.320312 40.535156 172.148438 43.753906 168.910156 C 46.972656 165.671875 51.117188 163.679688 55.523438 163.148438 Z M 52.03125 166.660156 C 51.171875 169.074219 49.78125 171.285156 47.949219 173.132812 C 46.113281 174.976562 43.917969 176.375 41.515625 177.242188 C 42.375 174.824219 43.765625 172.613281 45.597656 170.769531 C 47.433594 168.925781 49.628906 167.527344 52.03125 166.660156 Z M 52.03125 166.660156 " fill-opacity="1" fill-rule="evenodd"/></g></svg>