<svg xmlns="http://www.w3.org/2000/svg" xmlns:xlink="http://www.w3.org/1999/xlink" width="500" zoomAndPan="magnify" viewBox="0 0 375 374.999991" height="500" preserveAspectRatio="xMidYMid meet" version="1.0"><defs><clipPath id="8325ad12fc"><path d="M 0 0.710938 L 375 0.710938 L 375 11.914062 L 0 11.914062 Z M 0 0.710938 " clip-rule="nonzero"/></clipPath><clipPath id="be0ced942d"><path d="M 0 0.710938 L 375 0.710938 L 375 11.914062 L 0 11.914062 Z M 0 0.710938 " clip-rule="nonzero"/></clipPath><clipPath id="8c37fd2148"><rect x="0" width="375" y="0" height="12"/></clipPath><clipPath id="f48e85afee"><path d="M 25.523438 29.085938 L 257.210938 29.085938 L 257.210938 40.289062 L 25.523438 40.289062 Z M 25.523438 29.085938 " clip-rule="nonzero"/></clipPath><clipPath id="b8501b5144"><path d="M 0.523438 0.0859375 L 232.210938 0.0859375 L 232.210938 11.289062 L 0.523438 11.289062 Z M 0.523438 0.0859375 " clip-rule="nonzero"/></clipPath><clipPath id="ddc1c0dbfc"><rect x="0" width="233" y="0" height="12"/></clipPath><clipPath id="63b728874e"><rect x="0" width="375" y="0" height="41"/></clipPath></defs><g transform="matrix(1, 0, 0, 1, 0, 167)"><g clip-path="url(#63b728874e)"><g clip-path="url(#8325ad12fc)"><g transform="matrix(1, 0, 0, 1, 0, 0)"><g clip-path="url(#8c37fd2148)"><g clip-path="url(#be0ced942d)"><path fill="#748d63" d="M 0 0.710938 L 375.007812 0.710938 L 375.007812 11.914062 L 0 11.914062 Z M 0 0.710938 " fill-opacity="1" fill-rule="nonzero"/></g></g></g></g><g clip-path="url(#f48e85afee)"><g transform="matrix(1, 0, 0, 1, 25, 29)"><g clip-path="url(#ddc1c0dbfc)"><g clip-path="url(#b8501b5144)"><path fill="#748d63" d="M 0.523438 0.0859375 L 232.214844 0.0859375 L 232.214844 11.289062 L 0.523438 11.289062 Z M 0.523438 0.0859375 " fill-opacity="1" fill-rule="nonzero"/></g></g></g></g></g></g></svg>