<svg xmlns="http://www.w3.org/2000/svg" xmlns:xlink="http://www.w3.org/1999/xlink" width="500" zoomAndPan="magnify" viewBox="0 0 375 374.999991" height="500" preserveAspectRatio="xMidYMid meet" version="1.0"><defs><filter x="0%" y="0%" width="100%" height="100%" id="cd5661e006"><feColorMatrix values="0 0 0 0 1 0 0 0 0 1 0 0 0 0 1 0 0 0 1 0" color-interpolation-filters="sRGB"/></filter><clipPath id="56999edfcf"><path d="M 66 0 L 281.320312 0 L 281.320312 181 L 66 181 Z M 66 0 " clip-rule="nonzero"/></clipPath><mask id="581c664f00"><g filter="url(#cd5661e006)"><rect x="-129.5" width="540" fill="#000000" y="-82.499998" height="539.999987" fill-opacity="0.8"/></g></mask><clipPath id="224df6579a"><path d="M 0.316406 0 L 214.605469 0 L 214.605469 180.34375 L 0.316406 180.34375 Z M 0.316406 0 " clip-rule="nonzero"/></clipPath><clipPath id="667348ce2a"><path d="M 0.316406 0 L 214.605469 0 L 214.605469 180.34375 L 0.316406 180.34375 Z M 0.316406 0 " clip-rule="nonzero"/></clipPath><clipPath id="9d845e6b7a"><rect x="0" width="215" y="0" height="181"/></clipPath><clipPath id="b488e92b33"><rect x="0" width="216" y="0" height="181"/></clipPath><mask id="6e7f421613"><g filter="url(#cd5661e006)"><rect x="-129.5" width="540" fill="#000000" y="-82.499998" height="539.999987" fill-opacity="0.8"/></g></mask><clipPath id="5a952594d2"><path d="M 0.472656 0.71875 L 96.449219 0.71875 L 96.449219 113.410156 L 0.472656 113.410156 Z M 0.472656 0.71875 " clip-rule="nonzero"/></clipPath><clipPath id="8df3eed229"><path d="M 0.472656 0.71875 L 96.449219 0.71875 L 96.449219 113.410156 L 0.472656 113.410156 Z M 0.472656 0.71875 " clip-rule="nonzero"/></clipPath><clipPath id="b54ba8e214"><rect x="0" width="97" y="0" height="114"/></clipPath><clipPath id="23abdbf863"><rect x="0" width="97" y="0" height="114"/></clipPath><clipPath id="1afc781e48"><path d="M 0.28125 312 L 67 312 L 67 375 L 0.28125 375 Z M 0.28125 312 " clip-rule="nonzero"/></clipPath><mask id="14a01f4028"><g filter="url(#cd5661e006)"><rect x="-129.5" width="540" fill="#000000" y="-82.499998" height="539.999987" fill-opacity="0.8"/></g></mask><clipPath id="a26a12eaee"><path d="M 0.394531 0.652344 L 66.316406 0.652344 L 66.316406 63 L 0.394531 63 Z M 0.394531 0.652344 " clip-rule="nonzero"/></clipPath><clipPath id="a82801339c"><path d="M 0.394531 0.652344 L 66.316406 0.652344 L 66.316406 63 L 0.394531 63 Z M 0.394531 0.652344 " clip-rule="nonzero"/></clipPath><clipPath id="deadc5067e"><rect x="0" width="67" y="0" height="63"/></clipPath><clipPath id="dffef53b84"><rect x="0" width="67" y="0" height="63"/></clipPath><clipPath id="cc662e0adc"><rect x="0" width="282" y="0" height="375"/></clipPath></defs><g transform="matrix(1, 0, 0, 1, 47, 0)"><g clip-path="url(#cc662e0adc)"><g clip-path="url(#56999edfcf)"><g mask="url(#581c664f00)"><g transform="matrix(1, 0, 0, 1, 66, 0)"><g clip-path="url(#b488e92b33)"><g clip-path="url(#224df6579a)"><g transform="matrix(1, 0, 0, 1, 0.000000000000014211, 0)"><g clip-path="url(#9d845e6b7a)"><g clip-path="url(#667348ce2a)"><path fill="#50829b" d="M 0.316406 0 L 214.476562 0 L 214.476562 180.34375 L 0.316406 180.34375 Z M 0.316406 0 " fill-opacity="1" fill-rule="nonzero"/></g></g></g></g></g></g></g></g><g mask="url(#6e7f421613)"><g transform="matrix(1, 0, 0, 1, 125, 211)"><g clip-path="url(#23abdbf863)"><g clip-path="url(#5a952594d2)"><g><g clip-path="url(#b54ba8e214)"><g clip-path="url(#8df3eed229)"><path fill="#50829b" d="M 0.472656 0.71875 L 96.449219 0.71875 L 96.449219 113.566406 L 0.472656 113.566406 Z M 0.472656 0.71875 " fill-opacity="1" fill-rule="nonzero"/></g></g></g></g></g></g></g><g clip-path="url(#1afc781e48)"><g mask="url(#14a01f4028)"><g transform="matrix(1, 0, 0, 1, 0, 312)"><g clip-path="url(#dffef53b84)"><g clip-path="url(#a26a12eaee)"><g><g clip-path="url(#deadc5067e)"><g clip-path="url(#a82801339c)"><path fill="#50829b" d="M 0.394531 0.652344 L 66.394531 0.652344 L 66.394531 63 L 0.394531 63 Z M 0.394531 0.652344 " fill-opacity="1" fill-rule="nonzero"/></g></g></g></g></g></g></g></g></g></g></svg>