<svg xmlns="http://www.w3.org/2000/svg" xmlns:xlink="http://www.w3.org/1999/xlink" width="500" zoomAndPan="magnify" viewBox="0 0 375 374.999991" height="500" preserveAspectRatio="xMidYMid meet" version="1.0"><defs><filter x="0%" y="0%" width="100%" height="100%" id="629c8a7d3c"><feColorMatrix values="0 0 0 0 1 0 0 0 0 1 0 0 0 0 1 0 0 0 1 0" color-interpolation-filters="sRGB"/></filter><mask id="5bbe79804b"><g filter="url(#629c8a7d3c)"><rect x="-37.5" width="450" fill="#000000" y="-37.499999" height="449.999989" fill-opacity="0.8"/></g></mask><clipPath id="c4f367190e"><path d="M 31 15 L 216.558594 15 L 216.558594 334 L 31 334 Z M 31 15 " clip-rule="nonzero"/></clipPath><clipPath id="ed30b88b53"><path d="M 0.394531 31.765625 L 62.96875 0 L 216.464844 302.367188 L 153.890625 334.136719 Z M 0.394531 31.765625 " clip-rule="nonzero"/></clipPath><clipPath id="0f3430b3dc"><path d="M 31.679688 15.882812 L 216.34375 302.128906 L 153.769531 333.894531 Z M 31.679688 15.882812 " clip-rule="nonzero"/></clipPath><clipPath id="5bdd9b0448"><path d="M 0.519531 0.839844 L 185.558594 0.839844 L 185.558594 319 L 0.519531 319 Z M 0.519531 0.839844 " clip-rule="nonzero"/></clipPath><clipPath id="73ca1cbf73"><path d="M -30.605469 16.765625 L 31.96875 -15 L 185.464844 287.367188 L 122.890625 319.136719 Z M -30.605469 16.765625 " clip-rule="nonzero"/></clipPath><clipPath id="630b7c1d59"><path d="M 0.679688 0.882812 L 185.34375 287.128906 L 122.769531 318.894531 Z M 0.679688 0.882812 " clip-rule="nonzero"/></clipPath><clipPath id="e630f3f9bd"><rect x="0" width="186" y="0" height="319"/></clipPath><clipPath id="6d835ea25b"><rect x="0" width="217" y="0" height="335"/></clipPath><mask id="1b9b31fe23"><g filter="url(#629c8a7d3c)"><rect x="-37.5" width="450" fill="#000000" y="-37.499999" height="449.999989" fill-opacity="0.82"/></g></mask><clipPath id="49a54cdbb2"><path d="M 21 19 L 224 19 L 224 242 L 21 242 Z M 21 19 " clip-rule="nonzero"/></clipPath><clipPath id="517e3e00d1"><path d="M 0.65625 38.144531 L 42.878906 0.648438 L 224.058594 204.664062 L 181.839844 242.160156 Z M 0.65625 38.144531 " clip-rule="nonzero"/></clipPath><clipPath id="0215249d96"><path d="M 21.765625 19.394531 L 223.914062 204.5 L 181.695312 241.996094 Z M 21.765625 19.394531 " clip-rule="nonzero"/></clipPath><clipPath id="d38c3c9aa9"><path d="M 0.679688 0.160156 L 203 0.160156 L 203 223 L 0.679688 223 Z M 0.679688 0.160156 " clip-rule="nonzero"/></clipPath><clipPath id="7f8338ce7a"><path d="M -20.34375 19.144531 L 21.878906 -18.351562 L 203.058594 185.664062 L 160.839844 223.160156 Z M -20.34375 19.144531 " clip-rule="nonzero"/></clipPath><clipPath id="7015bc89f4"><path d="M 0.765625 0.394531 L 202.914062 185.5 L 160.695312 222.996094 Z M 0.765625 0.394531 " clip-rule="nonzero"/></clipPath><clipPath id="41266ddff2"><rect x="0" width="203" y="0" height="223"/></clipPath><clipPath id="4e41e3681c"><rect x="0" width="225" y="0" height="242"/></clipPath></defs><g mask="url(#5bbe79804b)"><g transform="matrix(1, 0, 0, 1, 88, 0)"><g clip-path="url(#6d835ea25b)"><g clip-path="url(#c4f367190e)"><g clip-path="url(#ed30b88b53)"><g clip-path="url(#0f3430b3dc)"><g transform="matrix(1, 0, 0, 1, 31, 15)"><g clip-path="url(#e630f3f9bd)"><g clip-path="url(#5bdd9b0448)"><g clip-path="url(#73ca1cbf73)"><g clip-path="url(#630b7c1d59)"><path fill="#748d63" d="M -30.605469 16.765625 L 31.96875 -15 L 185.34375 287.125 L 122.765625 318.890625 Z M -30.605469 16.765625 " fill-opacity="1" fill-rule="nonzero"/></g></g></g></g></g></g></g></g></g></g></g><g mask="url(#1b9b31fe23)"><g transform="matrix(1, 0, 0, 1, 70, 133)"><g clip-path="url(#4e41e3681c)"><g clip-path="url(#49a54cdbb2)"><g clip-path="url(#517e3e00d1)"><g clip-path="url(#0215249d96)"><g transform="matrix(1, 0, 0, 1, 21, 19)"><g clip-path="url(#41266ddff2)"><g clip-path="url(#d38c3c9aa9)"><g clip-path="url(#7f8338ce7a)"><g clip-path="url(#7015bc89f4)"><path fill="#748d63" d="M -20.34375 19.144531 L 21.878906 -18.351562 L 202.914062 185.5 L 160.691406 222.996094 Z M -20.34375 19.144531 " fill-opacity="1" fill-rule="nonzero"/></g></g></g></g></g></g></g></g></g></g></g></svg>