<svg xmlns="http://www.w3.org/2000/svg" xmlns:xlink="http://www.w3.org/1999/xlink" width="500" zoomAndPan="magnify" viewBox="0 0 375 374.999991" height="500" preserveAspectRatio="xMidYMid meet" version="1.0"><defs><clipPath id="7cb329c424"><path d="M 166.929688 228.101562 L 304.175781 228.101562 L 304.175781 375 L 166.929688 375 Z M 166.929688 228.101562 " clip-rule="nonzero"/></clipPath><clipPath id="e44b94fe84"><path d="M 0.929688 0.101562 L 138.175781 0.101562 L 138.175781 147 L 0.929688 147 Z M 0.929688 0.101562 " clip-rule="nonzero"/></clipPath><clipPath id="c45f12d8b3"><rect x="0" width="139" y="0" height="147"/></clipPath><clipPath id="dc125dab45"><path d="M 0.824219 0 L 138.070312 0 L 138.070312 146.898438 L 0.824219 146.898438 Z M 0.824219 0 " clip-rule="nonzero"/></clipPath><clipPath id="6ec6c40a3d"><path d="M 0.824219 0 L 138.070312 0 L 138.070312 146.898438 L 0.824219 146.898438 Z M 0.824219 0 " clip-rule="nonzero"/></clipPath><clipPath id="3b26293453"><rect x="0" width="139" y="0" height="147"/></clipPath><clipPath id="0dfc0e46b7"><rect x="0" width="305" y="0" height="375"/></clipPath></defs><g transform="matrix(1, 0, 0, 1, 35, 0)"><g clip-path="url(#0dfc0e46b7)"><g clip-path="url(#7cb329c424)"><g transform="matrix(1, 0, 0, 1, 166, 228)"><g clip-path="url(#c45f12d8b3)"><g clip-path="url(#e44b94fe84)"><path fill="#8174a0" d="M 0.929688 0.101562 L 138.175781 0.101562 L 138.175781 147 L 0.929688 147 Z M 0.929688 0.101562 " fill-opacity="1" fill-rule="nonzero"/></g></g></g></g><g clip-path="url(#dc125dab45)"><g><g clip-path="url(#3b26293453)"><g clip-path="url(#6ec6c40a3d)"><path fill="#8174a0" d="M 0.824219 0 L 138.070312 0 L 138.070312 146.898438 L 0.824219 146.898438 Z M 0.824219 0 " fill-opacity="1" fill-rule="nonzero"/></g></g></g></g></g></g></svg>